<mxfile host="www.draw.io" modified="2020-03-06T05:47:49.164Z" agent="Mozilla/5.0 (Windows NT 6.0; rv:52.0) Gecko/20100101 Firefox/52.0" etag="jFjdtuoXJo0C8PlYzMTr" version="12.8.1" type="github">
  <diagram id="awTgwJ8C14MsRacQySme" name="Page-1">
    <mxGraphModel dx="786" dy="554" grid="0" gridSize="10" guides="1" tooltips="1" connect="1" arrows="1" fold="1" page="1" pageScale="1" pageWidth="827" pageHeight="1169" math="0" shadow="0">
      <root>
        <mxCell id="0" />
        <mxCell id="1" parent="0" />
        <mxCell id="VX38q-8Tfx1qq0T2sIIn-2" value="&lt;h1 id=&quot;model_name_main&quot; style=&quot;font-size: 24px&quot;&gt;&lt;font style=&quot;font-size: 24px&quot;&gt;Vigor2832&lt;/font&gt;&lt;/h1&gt;&lt;b&gt;&lt;font style=&quot;font-size: 24px&quot;&gt;Series&lt;/font&gt;&lt;/b&gt;" style="ellipse;whiteSpace=wrap;html=1;aspect=fixed;" parent="1" vertex="1">
          <mxGeometry x="294" y="31" width="141" height="141" as="geometry" />
        </mxCell>
        <mxCell id="VX38q-8Tfx1qq0T2sIIn-3" value="&lt;h1 id=&quot;model_name_main&quot; style=&quot;font-size: 15px&quot;&gt;&lt;font style=&quot;font-size: 15px&quot;&gt;VigorSwitch P2280x&lt;/font&gt;&lt;/h1&gt;&lt;p style=&quot;font-size: 15px&quot;&gt;&lt;font style=&quot;font-size: 15px&quot;&gt;(DHCP server)&lt;/font&gt;&lt;br&gt;&lt;/p&gt;" style="rounded=0;whiteSpace=wrap;html=1;" parent="1" vertex="1">
          <mxGeometry x="240" y="220" width="249" height="67" as="geometry" />
        </mxCell>
        <mxCell id="VX38q-8Tfx1qq0T2sIIn-7" value="" style="endArrow=none;html=1;entryX=0.5;entryY=1;entryDx=0;entryDy=0;exitX=0.5;exitY=0;exitDx=0;exitDy=0;" parent="1" source="VX38q-8Tfx1qq0T2sIIn-3" target="VX38q-8Tfx1qq0T2sIIn-2" edge="1">
          <mxGeometry width="50" height="50" relative="1" as="geometry">
            <mxPoint x="388" y="310" as="sourcePoint" />
            <mxPoint x="438" y="260" as="targetPoint" />
          </mxGeometry>
        </mxCell>
        <mxCell id="VX38q-8Tfx1qq0T2sIIn-8" value="&lt;font style=&quot;font-size: 24px&quot;&gt;Host&lt;/font&gt;" style="whiteSpace=wrap;html=1;aspect=fixed;" parent="1" vertex="1">
          <mxGeometry x="324.5" y="345" width="80" height="80" as="geometry" />
        </mxCell>
        <mxCell id="VX38q-8Tfx1qq0T2sIIn-11" value="" style="endArrow=none;html=1;" parent="1" source="VX38q-8Tfx1qq0T2sIIn-8" target="VX38q-8Tfx1qq0T2sIIn-3" edge="1">
          <mxGeometry width="50" height="50" relative="1" as="geometry">
            <mxPoint x="364" y="337" as="sourcePoint" />
            <mxPoint x="364" y="289" as="targetPoint" />
          </mxGeometry>
        </mxCell>
        <mxCell id="VX38q-8Tfx1qq0T2sIIn-12" value="&lt;div class=&quot;col-md-10&quot;&gt;Vlan Routing -&amp;gt;Interface Setting&lt;br&gt;Vlan2&lt;br&gt;192.168.5.1/24&lt;br&gt;&lt;/div&gt;" style="text;html=1;align=left;verticalAlign=middle;whiteSpace=wrap;rounded=0;fillColor=none;strokeColor=#6c8ebf;" parent="1" vertex="1">
          <mxGeometry x="546" y="217" width="186" height="68" as="geometry" />
        </mxCell>
        <mxCell id="0wuKLxErqsubGauQZ7MV-1" value="" style="shape=image;verticalLabelPosition=bottom;labelBackgroundColor=#ffffff;verticalAlign=top;aspect=fixed;imageAspect=0;image=data:image/png,iVBORw0KGgoAAAANSUhEUgAAAogAAAEyCAYAAAB58CE0AAAbOElEQVR4nO3dMW8jZ5rg8f0gl94n0KfYfDfY3cD5DB1cNJM5mZATXOJ1BxvMAgLGgWGAyQJ9yVpB24CJI7aAAXTuCtwjSzibh7bbttpTkuDnAopkvcUqFimyWSXq9wMezEikqoocDfX3Wyz67wIAAEr+rusDAACgXwQiAAAJgQgAQEIgAgCQEIgAACQEIgAACYEIAEBCIAIAkBCIAAAkBCIAAIm1gfjT8/+Ii3/5x/jqv/83YxZz8S//GG+/eHGo31EA4MAaA/H//u5/dB4ipt/z//7nHw/5uwoAHEhtIP70/D86jw/zOMZKIgAcn9pAvPjnf+g8PMzjmIt//odD/84CAO9YbSB2HR3mcQ0AcFwEotl5AIDjIhDNzgMAHBeBaHYeAOC4CESz8wAAx0Ugmp0HADguAtHsPADAcRGIZucBAI6LQDQ7DwBwXHoRiN/94YPOI6frqT4Hj+k5AQCOy/4D8Q8v4i5expuN7v9BXL+JuPtixxj65OXi2Hfe1gPmTV55AvOPt/j56nNQ/frjKOKHuP5D9yEoEAHgaTiKQHyTx5ZRtuc4TPY9e0ybH09bIPZ/AIDj8o4D8X7165MXcbfY+nw17D6k5hZBVfn+mxfxXRJTP8T1Fy8X27qdlo/8fr9/KO9vpvikeox122/bf3UaVvc+ebk8lrXbrD4H/7vmOSnvY93zWT6m0m1fpMfy3Rc/lHawn5VJAOC4HCAQI8qB8iaPlUBat3r23Rc/rAZVJdrSVbzZPstBODsFnB7T7PZt91+dTVYLN3tMm51ibns+Z7cvfnYRwvf3r4brSsgKRADgQIGYrN4lUVKJodpgmd2nPujqArFmyttdF0Wt+6+b8opdrMbk1o+pPRAbn89PXq7sf7ZiuMFjF4gAwL1eBWJ6+jM1u099rNUHYiXc7ve5bkWwff9tj7+0z/vj2fQx7SMQv/vih9Xnoeb5nmuOXoEIAE9Z/wJx7Xv+NgnEZaTVrUy2BuLa/W/zHMyibtPHdJhArDxnEbGP9yECAMelV4HYfgp0g0CsOc262ynmNdN4/9Lj3vAxHeQUc+u+BSIA0LdArLsI5ZOXUb3yuTUQy0G0uFCjPrLSVbe2/dcH1voo2+wx7SUQa382ojGOSyudAhEAmOs4EEvv0Wv6mJskYDZ7D2L6wdUv4031OJKPwam/gKR+//Wz8kHZbR+dU9lm9TlIv94mEMtReL+fL9JVxeqx7uN9iADAcenFv2rPvMOpO+W+5wEAjotAPKZZOR1+mH8rCwBwXATikU31Y3UO8a/sAwCOi0A0Ow8AcFwEotl5AIDjIhDNzgMAHBeBaHYeAOC4CESz8wAAx0Ugmp0HADguAtHsPADAcRGIZucBAI6LQDQ7DwBwXASiMcYYY4xJRiAaY4wxxphkBKIxxhhjjEmmNhABAHi6BCIAAAmBCABAQiACAJAQiAAAJAQiAAAJgQgAQEIgAgCQEIgAACQEIgAACYEIAEBCIAIAkBCIAAAkBCIAAAmBCABAQiACAJAQiAAAJAQiAAAJgQgAQEIgAgCQEIgAACQEIgAACYEIAEBCIAIAkBCIAAAkBCIAAAmBCABAQiACAJAQiAAAJAQiAAAJgQgsFEUReZ5HlmUxHo+NMcYccLIsizzPoyiKrv8cCERgpiiKmEwm8e233/bixQngqSmKIi4vL2MymXT+OiwQgYiIyPM8vv32264PA+DJu7y8jDzPOz0GgQhERMRkMom7u7uuDwPgySuKIrIs6/QYBCIQERHj8bjrQwDgXtevyQIRiIjuX4wAWOr6NVkgAhHR/YsRAEtdvyYLRCAiun8xAmCp69dkgQhERPcvRgAsdf2aLBCBiOj+xQiApa5fkwVib01jNDiJk5OTGFavdM+GcXJyEieDUUynoxjM//uG2ztZ3WAMT+r2Nf+ZYdRfbD//ufnty+1UZ2WX9M5uL0az35WV/53nv5/laf1dBUAg0mg6GtQGXTac/aEdjKbLP8Btf3STP9TV4CuFXbKd/QXi4njprYe/GLX8w4x/OgDYmkCk2SLqyoFWibINA3Eem8PhsOYPeRp2y5B7aCBW7j9f8Wy7H516yIvR4h9iBsMY1qwgZkOrxwAPIRBZYx5og1g2230Qzv/qbhSIpdCr/nxElINtOCyH254CMZarnrPdCsQ+elggjpLfldW3KAxiMCitJDu9DByp0WjUeAbtgw8+2Hp7ApG15is081W9xUpgtrhDeyAmUVgXfaVgu7/vbH/7C8SV46Z39v8exNnvQ/LWgukoBiIROFJ1kfiQOIwQiLS6j67BKKZ1wbZBIFbjbDXW0rCbrfYNYjQViE/JO7lIZcXsd8TvAXCsypH40DiMEIhsYBFsWXl1715rIJauXq7O4q90Q+gNR+/oFDN9dJhA3PR+AI/XaDTaKQ4jBCKbWFzkUXk/YkR7INZ9zMjK1cyrYbe4+GDtewUfepEKfbT3QMyGDVfMV36HAVghENlA08fQxNoAHIymK+9hXGyx9aKR8srjvj/mxkUqfbT/FcSGaPQeRIBWApGNJJ99WLY2EP9P4+fTpZ+x+NCVv4d+ULZA7KN3c4q58jshDgE2IhCBXuj6xQiApa5fkwUiEBHdvxgBsNT1a7JABCKi+xcjAJa6fk0WiEBEdP9iBMBS16/JAhGIiO5fjABY6vo1WSACEdH9ixEAS12/JgtEICIiJpNJ3N3ddX0YAE9eURSRZd1+EJxABCIi4uXLl3F5edn1YQA8eZeXl/Hy5ctOj0EgAhER8csvv8RkMomrq6soiqLrwwF4coqiiKurq5hMJvHLL790eiwCEYiIiNvb2yiKIvI8jyzLYjweG2OMOeBkWRZ5nkdRFHF7e9vp3wSBCEREdP5iBMBS16/JAhGIiO5fjABY6vo1WSACEdH9ixEAS12/JgtEICK6fzECYKnr12SBCERE9y9GACx1/ZosEIGICB+SDdAjAhHoBYEI0B8CEeiFX3/9NX799deuDwPgyevD67FABBJdvygBPGV9eQ0WiAAAJAQiAAAJgQgAQEIgAgCQEIgAACQEIgAACYEIAEBCIAIAkBCIAAAkBCIAAAmBCABAQiACAJAQiAAAJAQiAAAJgQgAQEIgAgtFUUSe55FlWYzHY2OMMQecLMsiz/MoiqLrPwcCEZgpiiImk0l888038fr163jz5o0xxpgDzuvXr+PVq1cxmUw6j0SBCERERJ7ncXl5GdfX11EURdzc3MTt7a0xxpgDzM3NTRRFEdfX1/Hq1avI87zTvwkCEYiIiMlkEtfX13F3d9f1oQA8WXd3d/Hjjz9GlmWdHodABCIiYjwed35KA4DZW37G43GnxyAQey2L4clJnNTMsNt/sCiZH+Mwtj2kbFh+HA/fDvsxHo/j9va268MAePJubm4EIus0B+LJyUkMRtOuD/DBsmHfQheBCNAPt7e3ApF1GlbVsuF9JKbfn44G61cZp6MYJJFZXa2bxmjQdPv8tkEMh/P9DGI0rR7j/H7DyBbHWXd7aYZZ42OtPqY0itv2teY5ZIVABOgHgUiL5riprsDNv25eZWxYjRyMYnaPmnBrC7vBKKYrx9i0nfn9Nw/Epsd0sijfNfta3EcgbkogAvSDQKRFc9zMV9aGWSxXBhexF5GsrkXTfZIN3q8urgbarLVKMZYsTTYHYl2cVoO28T2Ii+MZxHLRcH6f+fdq9jVfSWx6nDQSiAD9IBBpsWEgJqdXqzOPqboVxNJ277fR/L7G5Snm9C5rTjHXHO98+62BOH9MlfPkyeOuPab77QjErQlEgH4QiLTY8BTzRoEYNe9BLN3eEGRLfQ7EmvccCsStCUSAfhCItNjwIpW208dNWy9HWs0p5jTqtg3EQ55iFoj7IBAB+kEg0mLzj7lpvKBjHkq1q4ebXFxSvX3zQGy+IKZyvDtfpLIuEF2ksimBCNAPApEW231Q9kpQVVfRViKxGnvVbZRvf8Ap5vKp73XHUns19PxuG37MTfV4BOLWBCJAPwhEjlD9exDpP4EI0A8CkSMkEB8rgQjQDwKRIyQQHyuBCNAPAhHoDYEI0A8CEegNgQjQDwIR6A2BCNAPAhHoDYEI0A8CEegNgQjQDwIR6A2BCNAPAhHoDYEI0A8CEegNgQjQDwIR6A2BCNAPAhHoDYEI0A8CEegNgQjQDwIR6A2BCNAPAhHojclkEkVRdH0YAE/e27dvI8uyTo9BIAIREZHneVxcXHR9GABP3sXFReR53ukxCEQgIiKKoojJZBJXV1dWEgE6UBRFXF1d9eKMjkAEFoqiiDzPI8uyGI/HxhhjDjhZlkWe553HYYRABACgQiACAJAQiAAAJAQiAAAJgQgAQEIgAgCQEIgAACQEIgAACYEIAEBCIAIAkBCIAAAkBCIAAAmBCABAQiACAJAQiAAAJAQisFAUReR5HlmWxXg8NsYYc8DJsizyPI+iKLr+cyAQgZmiKGIymcQ333wTr1+/jjdv3hhjjDngvH79Ol69ehWTyaTzSBSIQERE5Hkel5eXcX19HUVRxM3NTdze3hpjjDnA3NzcRFEUcX19Ha9evYo8zzv9myAQgYiImEwmcX19HXd3d10fCsCTdXd3Fz/++GNkWdbpcQhEICIixuNx56c0AJi95Wc8Hnd6DAKx17IYnpzEyckwsuTr1Rm2/oPGNEaD+/u333m5r8Eopjvdh8diPB7H7e1t14cB8OTd3NwIRNbZPBBPTgYxWldp01EMFvedb2+DfQvEJ0MgAvTD7e2tQGSdhkCsBFk2nIXfYE0hTkeD2UrjcNiw4lhaYTw5iWFWt6+2+8xvH8RwOFgJ1/kxNK56JhFbE7Jrb68+V2xLIAL0g0Ckxb4CcR5uw8jmkZXUWRp+yazE35b3ub9tfozVWR5zw+roYtub3i4QH0ogAvSDQKTFnk4xJ1FYisXq7aXvLVb75gG2yX2a3uc4/9na1cj77dXep+YxOJ39zghEgH4QiLTYNBDXv/9wcXo5q/86smHNxSuV1cpN7lM6xTxKlzgborZ837rHVncKec0paHYiEAH6QSDSYrNTzOutOTU8j71eBGLUvMdwy9vZiUAE6AeBSIs9BGJtVFVW4PZ+irkSbQ88PTx/32LTp/K03c52+hGI0zg7fRaj8+r3z2P07Fk8m8/KHSq3PxvFyia22l/E+ai8vdM4S355246nfj+b37/t8aTbOz2r/j+r7XagzwQiLXYPxHnEVS9gSeNq3xeprK7qNV2kshqgbRHbdJrZRSq76j4Ql1GT9tP99xffrH49i6lyBE3PTjeIxKb9zeIwiarzUWl79cezLsLOR9vcv+3xtD3+9ucH6DeBSItdA3EZddVVtsXq3+KGNAAHo1Hrx9ys3qc5ECNqIrH6OFYisGElsvZ2gbirhwViZWXs9Gzxv+n07LT0dTVaKls5O73/+VGMqit6SZwtfiBO56t6dbfHeYxWVv023F9527VmwVX+menZafOqYM320uemuvmWx1N3fOej5fbabgd6TyACvbF9IK6uhKXhUwqp6VmcrgmU6dlZsjq2El8rP7saaZUNro28dftrj6ntVxDrfn6rFb1qEFePb3oWp/OobLsd6D2BCPTG1oFYu9JVCa7zUTwbncf5aE3Mrfv5pv1Mz+K0MRDXr1a27W8epOfzVcaG9zSW36O4zWOrrrRu/HP3O6kN5lJAtt0O9J9ABHpj20CcJgGVTvP74Vq3WnPRyP0FG6VvzuNsdbO772/+uJrfg7j6nr70PYYbqI3r5uMrb1sgwvETiEBvPCgQW1fC5lfj7npVcXpV7+i85n73q4rbXYyx6Snt0v0aT+FuE2DNV0+n26x5PE4xw9ETiEBv7OcUc2p6dhqnZ9PFf7bbIJxmG06D53xU81E0m9j0PYg7BGLjRSdrHue6x1MXeysXqay5Heg9gQj0xkMvUknCoxw2Saisv6q4us31VxVXLvLY6fRpXZC2vQ+y4RRzY4BteSFM6+PxMTdw7AQi0Bt7+ZibUthU35dX/nrlcwYr21v9HOxRw3sc178Xcr6drfe38rjqVwDrPt6nfn/NHwdUvf8mj8cHZcNxE4hAb3T/QdkARAhEoEcEIkA/CESgNwQiQD8IRKA3BCJAPwhEoDcEIkA/CESgNwQiQD8IRKA3BCJAPwhEoDcEIkA/CESgNyaTSRRF0fVhADx5b9++jSzLOj0GgQhERESe53FxcdH1YQA8eRcXF5HneafHIBCBiIgoiiImk0lcXV1ZSQToQFEUcXV11YszOgIRWCiKIvI8jyzLYjweG2OMOeBkWRZ5nncehxECEQCACoEIAEBCIAIAkBCIAAAkBCIAAAmBCABAQiACAJAQiAAAJAQiAAAJgQgAQEIgAgCQEIgAACQEIgAACYEIAEBCIAIAkBCIwEJRFJHneWRZFuPx2BhjzAEny7LI8zyKouj6z4FABGaKoojJZBLffPNNvH79Ot68eWOMMeaA8/r163j16lVMJpPOI1EgAhERked5XF5exvX1dRRFETc3N3F7e2uMMeYAc3NzE0VRxPX1dbx69SryPO/0b4JABCIiYjKZxPX1ddzd3XV9KABP1t3dXfz444+RZVmnxyEQgYiIGI/HnZ/SAGD2lp/xeNzpMQjERyGL4clJnMxnMIrpVj8/jdHgJE5OhnGofx7JhicxbNzZ/HhmMxilj2Y6GuzwWBuP6P45PNxz8NiMx+O4vb3t+jAAnrybmxuBSJtKHM6nub5qHDYQs+HsGNsDcRCDQTUC03gUiIcjEAH64fb2ViDSYjqKQRJK1dCpi7/7+yx+pnSfbNgQXw33qQmqZIUvCcFK3DWG7DIQh8NB7bEPhsPK446I5LhmP58sPs6fq9pjb3re5scvIAUiQD8IRNqVoqd+RW6bQKyZTe5T2vF8dbA6s9PE2wfiKJs9vsXd7iNwOGoK46bj3/T22fM0j9zl4QlEgQjQDwKRDdSFWzlitgvE5fv95kE0X4Wruc98xW6+nZXVzPr9b3OKeTS9XzG83+cs3IaR1e6rrBJ029z//r7V9z4+dQIRoB8EIhtbXbl74Cnmmm3OQq4cbQ3bWTnFW3+6d7tAvL//YBTT+fcHo5g2Bl91pXD+mOpWEOtOMd+/73Ht8T1NAhGgHwQi21s55bzvQFyznXcUiItVwyitJlYDceX9hTURWHuf+XG1BSQCEaAfBCKtFheE1LwPMA27ZZAtfuZBp5jXBGLrady646t9VOlq5f12h8Phyvfm+5o/psXxL2KwOfLS46h/D6LTzEvdBuJ5jJ49i2eLGcV5+ebpWZwmtz+LZ6dny9/Dttuf3P6mcXa6vO/pmd9zeEwEIu02WDlrunDkYReprFuJ3GRflfu0XaSysrrX8J7CxtXLyv0bn6fqRShtXz893QXiLJ7KETM9O00j6nwUz0bntT+90e1Pan/3cbi4/+r+gX4TiGxmJX4qH+9SOX06zHb8mJvqdisrhiuRWF1RLB9v7Wrj6vsdF9tcLoOurFaW9zsYTVevRF77PNUE4P1zMVtFFIgPC8R0paq8qjU9Oy19XY2WkvPR6opanMfo2WnMm+Z89CzW99P625/U/qZncVra9uIY1q44An0iEIHe2D4QZ9G3sjK2CJHZytXoPGbRsk2gJJEzjbPT0zhtCNH225/Y/upicHoWpyuRCvSVQAR6Y+tArF0Zm0Xj8uzm7NToVitgm5wiTYKz7fantb800kv3r64qAr0lEIHe2DYQZ++je1Y7y5hZc2q5fqsb3r+0Ovmg2493fwIRHj+BCPTGgwKxddVsfvXuBqc376/U3exiispK5da3H/H+nGKGR08gAr2xn1PMqenZaZyeTRf/uX5bDStcbRd5bHARyJPaX10MukgFHhWBCPTGQy9SScKjHEJJqLQFzbrTnzWrZUnwtN3+xPbnY27g0ROIQG/s5WNuKh/dUn6vXfnr89EyWNa9l3H545UPml6Jo/W3P6X91f3vIg7hcRGIQG/4V+0B9INABHpDIAL0g0AEekMgAvSDQAR6QyAC9INABHpDIAL0g0AEekMgAvSDQAR6QyAC9INABHpDIAL0g0AEemMymURRFF0fBsCT9/bt28iyrNNjEIhARETkeR4XFxddHwbAk3dxcRF5nnd6DAIRiIiIoihiMpnE1dWVlUSADhRFEVdXV704oyMQgYWiKCLP88iyLMbjsTHGmANOlmWR53nncRghEAEAqBCIAAAkBCIAAAmBCABAQiACAJAQiAAAJAQiAAAJgQgAQEIgAgCQEIgAACQEIgB06H999Vn88exf47ef/j7+/t/+qffz209/H388+9d48erLrp863iGBCAAdePH1l/Hex+93Hny7zHsfvx8vvhaKx0ggAsCBPfvi3zuPu33Osy/+veunlD0TiABwQB99/qfOg+5dzEef/6nrp5Y9EogAcCAvvv6y85B7l+N08/EQiABwII/9PYdt897H73f9FLMnAhEADuD5V//ZecBZRWRTAhEADmD42Yedx9shZvjZh10/1eyBQASAA3gsn3O46/z20993/VSzBwIRAA7gocH10dXPERHx16/2HXP/GX+Nn+O/Pt9/JPL4CUQAOICHR1zET3/7OeJvf4mPBCIHIhAB4AAeFFtfXUbEZTz//C/x00rM3QfeV3+JnxZ7uYzn297++T/F8+8j4vv0IpqPrn5e+Z5AfDoEIgAcwENC6/n3ET9d/Sn+/t/+FP/1t/l/T1cXy9E3Ox09/3qT2++jcx6ii23P9vfQ09o8fgIRAA5g69CqrBqmcbcMwDTiyt/b5Pb59iv3/fwv8VOyL4H41AhEADiAbSPro6vq+w6rwVf3HsLySuN2t5dPM+9yelkgHgeBCAAHsF1kzU8P11hE434DcblquNvpZYF4HAQiABzAVpG18p7A8vcbTgvvdIp5GY9/vdrt9LJAPA4CEQAOYJvAqruquH4FMKIcks+/j8oKY9vt6Qrj/DMXdzm9LBCPg0AEgAPYOLBqP9KmGnGX8Xy+Gvj95XInde9ZXHt7ZT+fzz4SZ9cP5ebxE4gAcAC/+fR3O0XX6tSdQt7m9qY43e308m8+/V3XTzV7IBAB4ACGn33Y+0D86Ornymctbj/Dzz7s+qlmDwQiABzA8692e1/fOw3E+1PL+/jX+b34+stun2j2QiACwIG89+f39xyJ/Zr3/vx+108xeyIQAeBAXnz9ZecR9y7H6uHxEIgAcEAffb7be/z6Oh99/qeun1r2SCACwIEdWySKw+MjEAGgAy++/vLRvyfxvT+/77TykRKIANChF19/GcPPPnwHn5P4buY3n/4uhp99KAyPnEAEACAhEAEASPx/2DbBFGdQiC4AAAAASUVORK5CYII=;" vertex="1" parent="1">
          <mxGeometry x="427" y="310" width="373.24" height="176.26" as="geometry" />
        </mxCell>
        <mxCell id="0wuKLxErqsubGauQZ7MV-2" value="" style="endArrow=classic;html=1;entryX=0.5;entryY=1;entryDx=0;entryDy=0;exitX=0;exitY=0.5;exitDx=0;exitDy=0;" edge="1" parent="1" source="VX38q-8Tfx1qq0T2sIIn-12" target="VX38q-8Tfx1qq0T2sIIn-3">
          <mxGeometry width="50" height="50" relative="1" as="geometry">
            <mxPoint x="398" y="269" as="sourcePoint" />
            <mxPoint x="448" y="219" as="targetPoint" />
          </mxGeometry>
        </mxCell>
        <mxCell id="0wuKLxErqsubGauQZ7MV-3" value="disable DHCP&lt;br&gt;" style="text;html=1;align=left;verticalAlign=middle;whiteSpace=wrap;rounded=0;fillColor=none;strokeColor=#6c8ebf;" vertex="1" parent="1">
          <mxGeometry x="546" y="72" width="186" height="68" as="geometry" />
        </mxCell>
      </root>
    </mxGraphModel>
  </diagram>
</mxfile>
